<svg fill="none" viewBox="0 0 28 30" xmlns="http://www.w3.org/2000/svg"><path d="m4.5 1c-.92826 0-1.8185.36875-2.47487 1.02513-.65638.65637-1.02513 1.54661-1.02513 2.47487v21c0 .9283.36875 1.8185 1.02513 2.4749.65637.6563 1.54661 1.0251 2.47487 1.0251h19.25c.9283 0 1.8185-.3688 2.4749-1.0251.6563-.6564 1.0251-1.5466 1.0251-2.4749v-21c0-.92826-.3688-1.8185-1.0251-2.47487-.6564-.65638-1.5466-1.02513-2.4749-1.02513zm8.75 3.5h1.75c.4641 0 .9092.18437 1.2374.51256s.5126.77331.5126 1.23744v5.25c0 .4641-.1844.9092-.5126 1.2374s-.7733.5126-1.2374.5126h-1.75c-.4641 0-.9092-.1844-1.2374-.5126s-.5126-.7733-.5126-1.2374v-5.25c0-.46413.1844-.90925.5126-1.23744s.7733-.51256 1.2374-.51256zm-8.75 1.75c0-.46413.18437-.90925.51256-1.23744s.77331-.51256 1.23744-.51256h1.75c.46413 0 .90925.18437 1.23744.51256.32818.32819.51256.77331.51256 1.23744v12.25c0 .4641-.18438.9092-.51256 1.2374-.32819.3282-.77331.5126-1.23744.5126h-1.75c-.46413 0-.90925-.1844-1.23744-.5126s-.51256-.7733-.51256-1.2374zm15.75-1.75h1.75c.4641 0 .9092.18437 1.2374.51256s.5126.77331.5126 1.23744v17.5c0 .4641-.1844.9092-.5126 1.2374s-.7733.5126-1.2374.5126h-1.75c-.4641 0-.9092-.1844-1.2374-.5126s-.5126-.7733-.5126-1.2374v-17.5c0-.46413.1844-.90925.5126-1.23744s.7733-.51256 1.2374-.51256z" stroke="#2a2238" stroke-width="1.5"/></svg>